<?xml version="1.0" encoding="UTF-8"?>
<!DOCTYPE svg PUBLIC "-//W3C//DTD SVG 1.1//EN" "http://www.w3.org/Graphics/SVG/1.1/DTD/svg11.dtd">
<svg xmlns="http://www.w3.org/2000/svg" version="1.1" width="1926px" height="511px" style="shape-rendering:geometricPrecision; text-rendering:geometricPrecision; image-rendering:optimizeQuality; fill-rule:evenodd; clip-rule:evenodd" xmlns:xlink="http://www.w3.org/1999/xlink">
<g><path style="opacity:0.958" fill="#fefefe" d="M 796.5,6.5 C 814.833,6.5 833.167,6.5 851.5,6.5C 851.5,25.1667 851.5,43.8333 851.5,62.5C 833.167,62.5 814.833,62.5 796.5,62.5C 796.5,43.8333 796.5,25.1667 796.5,6.5 Z"/></g>
<g><path style="opacity:0.976" fill="#fefefe" d="M 954.5,6.5 C 972.5,6.5 990.5,6.5 1008.5,6.5C 1008.5,25.1667 1008.5,43.8333 1008.5,62.5C 990.5,62.5 972.5,62.5 954.5,62.5C 954.5,43.8333 954.5,25.1667 954.5,6.5 Z"/></g>
<g><path style="opacity:0.987" fill="#fefefe" d="M 1045.5,6.5 C 1065.83,6.5 1086.17,6.5 1106.5,6.5C 1106.5,83.8333 1106.5,161.167 1106.5,238.5C 1201.83,238.5 1297.17,238.5 1392.5,238.5C 1392.67,222.163 1392.5,205.83 1392,189.5C 1390.41,184.948 1387.25,182.115 1382.5,181C 1322.5,180.5 1262.5,180.333 1202.5,180.5C 1202.06,144.141 1202.56,107.808 1204,71.5C 1211.9,34.5948 1234.4,13.0948 1271.5,7C 1307.5,6.50001 1343.5,6.33335 1379.5,6.5C 1379.5,26.8333 1379.5,47.1667 1379.5,67.5C 1344.46,67.0407 1309.46,67.5407 1274.5,69C 1269.57,70.9268 1266.41,74.4268 1265,79.5C 1264.5,92.1623 1264.33,104.829 1264.5,117.5C 1305.5,117.333 1346.5,117.5 1387.5,118C 1421.07,124.235 1442.57,143.735 1452,176.5C 1454.23,197.097 1455.06,217.763 1454.5,238.5C 1487.83,238.5 1521.17,238.5 1554.5,238.5C 1554.5,192.833 1554.5,147.167 1554.5,101.5C 1575.5,101.5 1596.5,101.5 1617.5,101.5C 1617.5,147.167 1617.5,192.833 1617.5,238.5C 1649.5,238.5 1681.5,238.5 1713.5,238.5C 1713.33,218.497 1713.5,198.497 1714,178.5C 1714.04,152.927 1723.87,132.094 1743.5,116C 1755.05,108.229 1767.71,103.229 1781.5,101C 1824.17,100.5 1866.83,100.333 1909.5,100.5C 1909.5,166.833 1909.5,233.167 1909.5,299.5C 1621.5,299.5 1333.5,299.5 1045.5,299.5C 1045.5,201.833 1045.5,104.167 1045.5,6.5 Z M 1791.5,162.5 C 1809.83,162.5 1828.17,162.5 1846.5,162.5C 1846.5,187.833 1846.5,213.167 1846.5,238.5C 1822.83,238.5 1799.17,238.5 1775.5,238.5C 1775.33,216.497 1775.5,194.497 1776,172.5C 1779.75,166.9 1784.92,163.567 1791.5,162.5 Z"/></g>
<g><path style="opacity:0.983" fill="#fefefe" d="M 574.5,100.5 C 617.167,100.5 659.833,100.5 702.5,100.5C 702.5,166.833 702.5,233.167 702.5,299.5C 633.122,299.013 563.788,299.513 494.5,301C 491.865,302.961 490.031,305.461 489,308.5C 488.5,334.165 488.333,359.831 488.5,385.5C 467.258,385.827 446.091,385.494 425,384.5C 424.147,356.816 424.481,329.149 426,301.5C 434.444,255.92 461.944,234.92 508.5,238.5C 508.333,214.164 508.5,189.831 509,165.5C 514.015,136.942 529.848,117.109 556.5,106C 562.524,103.822 568.524,101.989 574.5,100.5 Z M 584.5,162.5 C 603.167,162.5 621.833,162.5 640.5,162.5C 640.5,187.833 640.5,213.167 640.5,238.5C 616.833,238.5 593.167,238.5 569.5,238.5C 569.333,216.831 569.5,195.164 570,173.5C 570.731,171.101 571.898,168.935 573.5,167C 577.053,164.879 580.72,163.379 584.5,162.5 Z"/></g>
<g><path style="opacity:0.981" fill="#fefefe" d="M 790.5,100.5 C 811.167,100.5 831.833,100.5 852.5,100.5C 852.5,146.5 852.5,192.5 852.5,238.5C 885.167,238.5 917.833,238.5 950.5,238.5C 950.5,192.833 950.5,147.167 950.5,101.5C 971.5,101.5 992.5,101.5 1013.5,101.5C 1013.5,167.5 1013.5,233.5 1013.5,299.5C 959.833,299.5 906.167,299.5 852.5,299.5C 852.619,312.461 850.786,325.127 847,337.5C 834.325,364.085 813.492,379.919 784.5,385C 767.593,385.825 750.759,385.658 734,384.5C 733.333,364.167 733.333,343.833 734,323.5C 749.759,322.675 765.593,322.175 781.5,322C 786.108,320.394 788.941,317.227 790,312.5C 790.5,241.834 790.667,171.167 790.5,100.5 Z"/></g>
<g><path style="opacity:0.972" fill="#fefefe" d="M 50.5,283.5 C 65.5037,283.333 80.5037,283.5 95.5,284C 110.105,285.938 118.938,294.105 122,308.5C 122.5,325.83 122.667,343.163 122.5,360.5C 97.1667,360.5 71.8333,360.5 46.5,360.5C 46.5029,363.675 47.5029,366.508 49.5,369C 57.4148,370.401 65.4148,370.901 73.5,370.5C 73.815,378.42 73.4817,386.253 72.5,394C 64.1667,394.667 55.8333,394.667 47.5,394C 35.7356,391.697 27.9023,384.864 24,373.5C 22.5824,361.228 22.0824,348.895 22.5,336.5C 47.8333,336.5 73.1667,336.5 98.5,336.5C 98.6664,328.493 98.4997,320.493 98,312.5C 97.044,311.421 96.2106,310.255 95.5,309C 77.5558,307.873 59.5558,307.039 41.5,306.5C 44.7026,298.888 47.7026,291.222 50.5,283.5 Z"/></g>
<g><path style="opacity:0.97" fill="#fefefe" d="M 141.5,283.5 C 154.504,283.333 167.504,283.5 180.5,284C 196.42,286.34 205.253,295.507 207,311.5C 207.5,327.83 207.667,344.163 207.5,360.5C 183.167,360.5 158.833,360.5 134.5,360.5C 134.5,352.5 134.5,344.5 134.5,336.5C 150.5,336.5 166.5,336.5 182.5,336.5C 182.666,328.16 182.5,319.827 182,311.5C 181.167,310.667 180.333,309.833 179.5,309C 166.908,307.559 154.241,307.059 141.5,307.5C 141.5,299.5 141.5,291.5 141.5,283.5 Z"/></g>
<g><path style="opacity:0.968" fill="#fefefe" d="M 240.5,283.5 C 248.833,283.5 257.167,283.5 265.5,283.5C 265.5,301.167 265.5,318.833 265.5,336.5C 278.167,336.5 290.833,336.5 303.5,336.5C 303.5,318.833 303.5,301.167 303.5,283.5C 311.833,283.5 320.167,283.5 328.5,283.5C 328.5,301.167 328.5,318.833 328.5,336.5C 340.833,336.5 353.167,336.5 365.5,336.5C 365.5,318.833 365.5,301.167 365.5,283.5C 373.833,283.5 382.167,283.5 390.5,283.5C 390.5,309.167 390.5,334.833 390.5,360.5C 348.833,360.5 307.167,360.5 265.5,360.5C 266.437,371.866 262.437,381.033 253.5,388C 250.036,390.047 246.37,391.713 242.5,393C 234.507,393.5 226.507,393.666 218.5,393.5C 218.5,385.5 218.5,377.5 218.5,369.5C 224.176,369.666 229.843,369.499 235.5,369C 237.101,368.727 238.601,368.227 240,367.5C 240.5,339.502 240.667,311.502 240.5,283.5 Z"/></g>
<g><path style="opacity:0.984" fill="#fefefe" d="M 1522.5,332.5 C 1540.5,332.5 1558.5,332.5 1576.5,332.5C 1576.5,351.167 1576.5,369.833 1576.5,388.5C 1558.5,388.5 1540.5,388.5 1522.5,388.5C 1522.5,369.833 1522.5,351.167 1522.5,332.5 Z"/></g>
<g><path style="opacity:0.976" fill="#fefefe" d="M 1589.5,332.5 C 1607.5,332.5 1625.5,332.5 1643.5,332.5C 1643.5,351.167 1643.5,369.833 1643.5,388.5C 1625.5,388.5 1607.5,388.5 1589.5,388.5C 1589.5,369.833 1589.5,351.167 1589.5,332.5 Z"/></g>
<g><path style="opacity:0.938" fill="#fefefe" d="M 83.5,370.5 C 90.8333,370.5 98.1667,370.5 105.5,370.5C 105.5,377.833 105.5,385.167 105.5,392.5C 98.1667,392.5 90.8333,392.5 83.5,392.5C 83.5,385.167 83.5,377.833 83.5,370.5 Z"/></g>
<g><path style="opacity:0.94" fill="#fefefe" d="M 291.5,373.5 C 298.833,373.5 306.167,373.5 313.5,373.5C 313.5,380.833 313.5,388.167 313.5,395.5C 306.167,395.5 298.833,395.5 291.5,395.5C 291.5,388.167 291.5,380.833 291.5,373.5 Z"/></g>
<g><path style="opacity:0.935" fill="#fefefe" d="M 317.5,373.5 C 324.833,373.5 332.167,373.5 339.5,373.5C 339.5,380.833 339.5,388.167 339.5,395.5C 332.167,395.5 324.833,395.5 317.5,395.5C 317.5,388.167 317.5,380.833 317.5,373.5 Z"/></g>
<g><path style="opacity:0.937" fill="#fefefe" d="M 363.5,374.5 C 370.833,374.5 378.167,374.5 385.5,374.5C 385.5,381.833 385.5,389.167 385.5,396.5C 378.167,396.5 370.833,396.5 363.5,396.5C 363.5,389.167 363.5,381.833 363.5,374.5 Z"/></g>
<g><path style="opacity:0.959" fill="#fefefe" d="M 31.5,423.5 C 38.5316,423.17 45.5316,423.503 52.5,424.5C 55.4304,430.792 58.2637,437.125 61,443.5C 65.13,436.739 69.63,430.239 74.5,424C 81.1583,423.5 87.825,423.334 94.5,423.5C 92.2399,445.174 89.9066,466.841 87.5,488.5C 80.8333,488.5 74.1667,488.5 67.5,488.5C 68.6674,477.17 69.5007,465.836 70,454.5C 66.2994,459.909 62.1328,464.909 57.5,469.5C 54.4431,464.391 51.6098,459.058 49,453.5C 46.9259,465.093 45.4259,476.759 44.5,488.5C 37.8333,488.5 31.1667,488.5 24.5,488.5C 26.9065,466.842 29.2398,445.175 31.5,423.5 Z"/></g>
<g><path style="opacity:0.975" fill="#fefefe" d="M 98.5,423.5 C 112.837,423.333 127.171,423.5 141.5,424C 140.223,429.385 139.556,434.885 139.5,440.5C 131.833,440.5 124.167,440.5 116.5,440.5C 116.5,442.167 116.5,443.833 116.5,445.5C 123.833,445.5 131.167,445.5 138.5,445.5C 137.588,451.131 136.921,456.798 136.5,462.5C 129.159,462.334 121.826,462.5 114.5,463C 113.556,465.719 113.223,468.552 113.5,471.5C 120.833,471.5 128.167,471.5 135.5,471.5C 134.588,477.131 133.921,482.798 133.5,488.5C 119.163,488.667 104.829,488.5 90.5,488C 93.4914,466.582 96.1581,445.082 98.5,423.5 Z"/></g>
<g><path style="opacity:0.968" fill="#fefefe" d="M 153.5,423.5 C 165.167,423.5 176.833,423.5 188.5,423.5C 188.079,429.202 187.412,434.869 186.5,440.5C 179.492,440.334 172.492,440.5 165.5,441C 163.113,441.976 161.946,443.809 162,446.5C 160.915,454.165 160.249,461.832 160,469.5C 160.5,470 161,470.5 161.5,471C 168.492,471.5 175.492,471.666 182.5,471.5C 182.444,477.115 181.777,482.615 180.5,488C 168.833,488.667 157.167,488.667 145.5,488C 143.333,485.167 141.167,482.333 139,479.5C 139.639,463.752 141.305,448.085 144,432.5C 147.528,429.831 150.695,426.831 153.5,423.5 Z"/></g>
<g><path style="opacity:0.963" fill="#fefefe" d="M 192.5,423.5 C 199.167,423.5 205.833,423.5 212.5,423.5C 211.745,431.211 210.745,438.878 209.5,446.5C 212.428,447.484 215.428,447.817 218.5,447.5C 219.15,439.821 219.983,432.154 221,424.5C 227.777,423.189 234.61,423.189 241.5,424.5C 238.615,445.795 235.949,467.128 233.5,488.5C 226.833,488.5 220.167,488.5 213.5,488.5C 214.091,480.768 215.091,473.102 216.5,465.5C 213.572,464.516 210.572,464.183 207.5,464.5C 206.864,472.226 205.864,479.892 204.5,487.5C 197.866,488.497 191.2,488.83 184.5,488.5C 187.167,466.833 189.833,445.167 192.5,423.5 Z"/></g>
<g><path style="opacity:0.965" fill="#fefefe" d="M 256.5,423.5 C 266.5,423.5 276.5,423.5 286.5,423.5C 287.426,445.08 288.759,466.58 290.5,488C 283.508,488.5 276.508,488.666 269.5,488.5C 269.5,483.5 269.5,478.5 269.5,473.5C 266.552,473.223 263.719,473.556 261,474.5C 259.988,478.883 258.821,483.216 257.5,487.5C 250.866,488.497 244.2,488.83 237.5,488.5C 243.636,466.759 249.97,445.093 256.5,423.5 Z M 268.5,446.5 C 269.479,449.625 269.813,452.958 269.5,456.5C 268.5,456.5 267.5,456.5 266.5,456.5C 266.851,453.097 267.518,449.763 268.5,446.5 Z"/></g>
<g><path style="opacity:0.962" fill="#fefefe" d="M 301.5,423.5 C 308.532,423.17 315.532,423.503 322.5,424.5C 326.667,434.167 330.833,443.833 335,453.5C 336.496,443.531 337.663,433.531 338.5,423.5C 345.167,423.5 351.833,423.5 358.5,423.5C 356.386,445.19 354.053,466.857 351.5,488.5C 344.468,488.83 337.468,488.497 330.5,487.5C 326.333,477.833 322.167,468.167 318,458.5C 316.34,468.446 315.173,478.446 314.5,488.5C 307.492,488.666 300.492,488.5 293.5,488C 296.613,466.597 299.28,445.097 301.5,423.5 Z"/></g>
<g><path style="opacity:0.955" fill="#fefefe" d="M 362.5,423.5 C 369.167,423.5 375.833,423.5 382.5,423.5C 380.084,445.158 377.751,466.825 375.5,488.5C 368.492,488.666 361.492,488.5 354.5,488C 357.491,466.582 360.158,445.082 362.5,423.5 Z"/></g>
<g><path style="opacity:0.969" fill="#fefefe" d="M 395.5,423.5 C 407.167,423.5 418.833,423.5 430.5,423.5C 429.751,429.155 429.085,434.822 428.5,440.5C 421.159,440.334 413.826,440.5 406.5,441C 404.38,442.523 404.047,444.356 405.5,446.5C 410.467,447.329 415.467,447.829 420.5,448C 422.667,450.833 424.833,453.667 427,456.5C 427.29,464.231 426.623,471.897 425,479.5C 421.535,481.963 418.369,484.796 415.5,488C 403.838,488.5 392.171,488.667 380.5,488.5C 380.803,483.108 381.469,477.775 382.5,472.5C 389.476,471.669 396.476,471.169 403.5,471C 406.925,469.402 407.258,467.402 404.5,465C 399.833,464.667 395.167,464.333 390.5,464C 387.432,460.603 384.765,456.936 382.5,453C 383.463,446.126 384.63,439.293 386,432.5C 389.062,429.268 392.229,426.268 395.5,423.5 Z"/></g>
<g><path style="opacity:0.956" fill="#fefefe" d="M 435.5,423.5 C 442.532,423.17 449.532,423.503 456.5,424.5C 459.077,430.652 461.91,436.652 465,442.5C 469.413,436.674 473.58,430.674 477.5,424.5C 484.468,423.503 491.468,423.17 498.5,423.5C 496.165,444.845 493.665,466.178 491,487.5C 484.223,488.811 477.39,488.811 470.5,487.5C 472.491,476.24 473.658,464.907 474,453.5C 469.909,459.347 465.576,465.013 461,470.5C 458.333,465.167 455.667,459.833 453,454.5C 450.526,465.618 449.026,476.952 448.5,488.5C 441.492,488.666 434.492,488.5 427.5,488C 430.491,466.582 433.158,445.082 435.5,423.5 Z"/></g>
<g><path style="opacity:0.97" fill="#fefefe" d="M 545.5,423.5 C 557.838,423.333 570.171,423.5 582.5,424C 585.358,427.358 588.025,430.858 590.5,434.5C 590.912,443.439 587.579,450.605 580.5,456C 587.175,462.918 588.342,470.752 584,479.5C 581.167,482.333 578.333,485.167 575.5,488C 563.171,488.5 550.838,488.667 538.5,488.5C 540.906,466.842 543.24,445.175 545.5,423.5 Z M 563.5,440.5 C 568.466,440.929 569.466,443.096 566.5,447C 565.552,447.483 564.552,447.649 563.5,447.5C 563.5,445.167 563.5,442.833 563.5,440.5 Z M 561.5,464.5 C 566.489,465.608 567.155,467.774 563.5,471C 562.552,471.483 561.552,471.649 560.5,471.5C 560.298,469.05 560.631,466.717 561.5,464.5 Z"/></g>
<g><path style="opacity:0.966" fill="#fefefe" d="M 595.5,423.5 C 607.505,423.333 619.505,423.5 631.5,424C 634.118,426.739 636.618,429.573 639,432.5C 639.238,436.848 638.905,441.181 638,445.5C 635.695,449.304 633.195,452.97 630.5,456.5C 635.537,462.748 636.871,469.748 634.5,477.5C 634.428,481.176 635.094,484.676 636.5,488C 630.141,488.831 623.807,488.664 617.5,487.5C 614.434,481.439 613.767,475.106 615.5,468.5C 614.574,464.469 612.74,463.802 610,466.5C 609.202,473.848 608.369,481.181 607.5,488.5C 600.833,488.5 594.167,488.5 587.5,488.5C 589.879,466.755 592.545,445.088 595.5,423.5 Z M 613.5,440.5 C 618.489,441.608 619.155,443.774 615.5,447C 614.552,447.483 613.552,447.649 612.5,447.5C 612.448,445.097 612.781,442.764 613.5,440.5 Z"/></g>
<g><path style="opacity:0.955" fill="#fefefe" d="M 647.5,423.5 C 654.167,423.5 660.833,423.5 667.5,423.5C 665.084,445.158 662.751,466.825 660.5,488.5C 653.492,488.666 646.492,488.5 639.5,488C 642.491,466.582 645.158,445.082 647.5,423.5 Z"/></g>
<g><path style="opacity:0.966" fill="#fefefe" d="M 671.5,423.5 C 683.851,423.168 696.185,423.501 708.5,424.5C 712.407,427.656 714.74,431.656 715.5,436.5C 713.912,450.869 712.079,465.202 710,479.5C 706.535,481.963 703.369,484.796 700.5,488C 688.171,488.5 675.838,488.667 663.5,488.5C 666.167,466.834 668.833,445.167 671.5,423.5 Z M 689.5,440.5 C 692.585,440.418 694.252,441.918 694.5,445C 693.696,453.272 692.363,461.439 690.5,469.5C 689.131,471.124 687.464,471.624 685.5,471C 687.116,460.909 688.449,450.743 689.5,440.5 Z"/></g>
<g><path style="opacity:0.967" fill="#fefefe" d="M 729.5,423.5 C 741.851,423.168 754.185,423.501 766.5,424.5C 765.343,429.76 764.676,435.093 764.5,440.5C 756.826,440.334 749.159,440.5 741.5,441C 740.584,441.374 739.75,441.874 739,442.5C 737.256,451.445 736.256,460.445 736,469.5C 737.11,471.037 738.61,471.703 740.5,471.5C 740.508,468.455 740.841,465.455 741.5,462.5C 740.5,462.5 739.5,462.5 738.5,462.5C 738.676,457.093 739.343,451.76 740.5,446.5C 748.138,445.503 755.804,445.169 763.5,445.5C 761.915,459.845 760.249,474.178 758.5,488.5C 746.162,488.667 733.829,488.5 721.5,488C 719.333,485.167 717.167,482.333 715,479.5C 715.639,463.752 717.305,448.085 720,432.5C 723.667,429.999 726.834,426.999 729.5,423.5 Z"/></g>
<g><path style="opacity:0.976" fill="#fefefe" d="M 770.5,423.5 C 784.5,423.5 798.5,423.5 812.5,423.5C 811.915,429.178 811.249,434.845 810.5,440.5C 803.137,440.169 795.803,440.503 788.5,441.5C 787.754,442.736 787.421,444.07 787.5,445.5C 794.833,445.5 802.167,445.5 809.5,445.5C 809.304,451.099 808.638,456.599 807.5,462C 800.174,462.5 792.841,462.666 785.5,462.5C 785.296,465.518 784.963,468.518 784.5,471.5C 791.833,471.5 799.167,471.5 806.5,471.5C 806.324,476.907 805.657,482.24 804.5,487.5C 790.516,488.499 776.516,488.833 762.5,488.5C 764.879,466.755 767.545,445.088 770.5,423.5 Z"/></g>
</svg>
